<svg width="307" height="56" viewBox="0 0 307 56" fill="none" xmlns="http://www.w3.org/2000/svg">
<path d="M11.296 3.672H47.008L44.704 14.4H21.736L19.792 23.832H36.568L34.408 33.84H17.632L13.384 54H0.64L11.296 3.672ZM49.4768 55.08C44.9168 55.08 41.2688 53.832 38.5328 51.336C35.8448 48.84 34.5008 45.456 34.5008 41.184C34.5008 40.032 34.6688 38.568 35.0048 36.792C35.7728 33.192 37.2128 30 39.3248 27.216C41.4848 24.384 44.1008 22.2 47.1728 20.664C50.2928 19.128 53.6768 18.36 57.3248 18.36C59.7248 18.36 61.8608 18.696 63.7328 19.368C65.6048 20.04 67.1168 21 68.2688 22.248L68.9168 19.44H81.5888L74.2448 54H62.0048L62.7248 50.544C58.8368 53.568 54.4208 55.08 49.4768 55.08ZM54.8768 45.288C56.7968 45.288 58.6208 44.808 60.3488 43.848C62.1248 42.84 63.5168 41.496 64.5248 39.816L65.8208 33.696C65.5328 32.016 64.7168 30.696 63.3728 29.736C62.0768 28.728 60.4688 28.224 58.5488 28.224C55.9568 28.224 53.7008 28.992 51.7808 30.528C49.8608 32.064 48.6128 34.152 48.0368 36.792C47.8448 37.608 47.7488 38.496 47.7488 39.456C47.7488 43.344 50.1248 45.288 54.8768 45.288ZM91.6784 0.791998H104.35L93.0464 54H80.3744L91.6784 0.791998ZM119.515 55.08C113.947 55.08 109.507 53.856 106.195 51.408C102.883 48.912 101.227 45.432 101.227 40.968C101.227 39.672 101.371 38.304 101.659 36.864C102.907 31.056 105.523 26.52 109.507 23.256C113.539 19.992 118.915 18.36 125.635 18.36C128.947 18.36 131.827 18.984 134.275 20.232C136.723 21.48 138.595 23.184 139.891 25.344C141.187 27.504 141.835 29.928 141.835 32.616C141.835 33.768 141.691 34.992 141.403 36.288L140.395 40.968H112.819C112.963 44.616 116.395 46.44 123.115 46.44C125.371 46.44 127.723 46.248 130.171 45.864C132.619 45.48 134.779 44.952 136.651 44.28L134.923 52.632C133.003 53.352 130.651 53.928 127.867 54.36C125.083 54.84 122.299 55.08 119.515 55.08ZM130.099 33.048C130.147 32.76 130.171 32.376 130.171 31.896C130.171 30.312 129.667 29.112 128.659 28.296C127.651 27.48 125.947 27.072 123.547 27.072C121.243 27.072 119.299 27.624 117.715 28.728C116.131 29.784 115.051 31.224 114.475 33.048H130.099ZM153.327 3.672H165.207L173.127 34.848L194.367 3.672H206.895L196.239 54H184.359L189.687 28.728L172.335 54H166.575L159.951 28.728L154.623 54H142.671L153.327 3.672ZM219.422 55.08C214.862 55.08 211.214 53.832 208.478 51.336C205.79 48.84 204.446 45.456 204.446 41.184C204.446 40.032 204.614 38.568 204.95 36.792C205.718 33.192 207.158 30 209.27 27.216C211.43 24.384 214.046 22.2 217.118 20.664C220.238 19.128 223.622 18.36 227.27 18.36C229.67 18.36 231.806 18.696 233.678 19.368C235.55 20.04 237.062 21 238.214 22.248L238.862 19.44H251.534L244.19 54H231.95L232.67 50.544C228.782 53.568 224.366 55.08 219.422 55.08ZM224.822 45.288C226.742 45.288 228.566 44.808 230.294 43.848C232.07 42.84 233.462 41.496 234.47 39.816L235.766 33.696C235.478 32.016 234.662 30.696 233.318 29.736C232.022 28.728 230.414 28.224 228.494 28.224C225.902 28.224 223.646 28.992 221.726 30.528C219.806 32.064 218.558 34.152 217.982 36.792C217.79 37.608 217.694 38.496 217.694 39.456C217.694 43.344 220.07 45.288 224.822 45.288ZM265.368 14.832C263.736 14.832 262.416 14.376 261.408 13.464C260.4 12.504 259.896 11.256 259.896 9.72C259.896 8.28 260.28 6.936 261.048 5.688C261.816 4.44 262.824 3.456 264.072 2.736C265.368 1.968 266.736 1.584 268.176 1.584C269.808 1.584 271.128 2.088 272.136 3.096C273.192 4.056 273.72 5.304 273.72 6.84C273.72 7.08 273.672 7.536 273.576 8.208C273.144 10.08 272.136 11.664 270.552 12.96C268.968 14.208 267.24 14.832 265.368 14.832ZM258.096 19.44H270.768L263.424 54H250.752L258.096 19.44ZM284.975 55.08C282.191 55.08 279.335 54.792 276.407 54.216C273.527 53.688 271.319 52.92 269.783 51.912L271.727 42.624C273.455 43.776 275.615 44.736 278.207 45.504C280.799 46.224 283.247 46.584 285.551 46.584C287.231 46.584 288.479 46.464 289.295 46.224C290.111 45.984 290.615 45.504 290.807 44.784C290.903 44.208 290.735 43.752 290.303 43.416C289.871 43.032 289.031 42.648 287.783 42.264C286.583 41.832 285.167 41.376 283.535 40.896C280.079 39.792 277.583 38.616 276.047 37.368C274.559 36.12 273.815 34.416 273.815 32.256C273.815 31.344 273.911 30.432 274.103 29.52C275.687 22.08 281.999 18.36 293.039 18.36C295.535 18.36 298.103 18.624 300.743 19.152C303.383 19.68 305.303 20.376 306.503 21.24L304.559 30.384C303.311 29.424 301.559 28.632 299.303 28.008C297.095 27.384 294.959 27.072 292.895 27.072C291.263 27.072 289.967 27.24 289.007 27.576C288.047 27.864 287.471 28.392 287.279 29.16C287.135 29.88 287.471 30.432 288.287 30.816C289.151 31.2 290.687 31.68 292.895 32.256C293.135 32.304 293.399 32.376 293.687 32.472C294.023 32.568 294.359 32.664 294.695 32.76C298.247 33.768 300.743 34.92 302.183 36.216C303.623 37.512 304.343 39.192 304.343 41.256C304.343 41.976 304.223 42.984 303.983 44.28C303.263 47.64 301.343 50.28 298.223 52.2C295.151 54.12 290.735 55.08 284.975 55.08Z" fill="white"/>
</svg>
