<svg width="243" height="55" viewBox="0 0 243 55" fill="none" xmlns="http://www.w3.org/2000/svg">
<path d="M101.785 12.3398H86.4219V54H74.082V12.3398H59V2.8125H101.785V12.3398Z" fill="#FEFEFE"/>
<path d="M121.719 54.7031C115.883 54.7031 111.16 52.9688 107.551 49.5C103.941 46.0078 102.137 41.4727 102.137 35.8945V34.9102C102.137 31.0195 102.852 27.5859 104.281 24.6094C105.734 21.6328 107.844 19.3359 110.609 17.7188C113.375 16.0781 116.656 15.2578 120.453 15.2578C125.797 15.2578 130.016 16.9219 133.109 20.25C136.203 23.5547 137.75 28.1719 137.75 34.1016V38.707H114.195C114.617 40.8398 115.543 42.5156 116.973 43.7344C118.402 44.9531 120.254 45.5625 122.527 45.5625C126.277 45.5625 129.207 44.25 131.316 41.625L136.73 48.0234C135.254 50.0625 133.156 51.6914 130.438 52.9102C127.742 54.1055 124.836 54.7031 121.719 54.7031ZM120.383 24.3984C116.914 24.3984 114.852 26.6953 114.195 31.2891H126.148V30.375C126.195 28.4766 125.715 27.0117 124.707 25.9805C123.699 24.9258 122.258 24.3984 120.383 24.3984Z" fill="#FEFEFE"/>
<path d="M155.047 54H143.164V0H155.047V54Z" fill="#FEFEFE"/>
<path d="M176.352 44.8594H193.684V54H161.375V47.3906L178.25 25.1016H162.113V15.9609H193.297V22.3594L176.352 44.8594Z" fill="#FEFEFE"/>
<path d="M211.93 54H200.047V15.9609H211.93V54ZM199.344 6.15234C199.344 4.46484 199.953 3.08203 201.172 2.00391C202.391 0.925781 203.973 0.386719 205.918 0.386719C207.863 0.386719 209.445 0.925781 210.664 2.00391C211.883 3.08203 212.492 4.46484 212.492 6.15234C212.492 7.83984 211.883 9.22266 210.664 10.3008C209.445 11.3789 207.863 11.918 205.918 11.918C203.973 11.918 202.391 11.3789 201.172 10.3008C199.953 9.22266 199.344 7.83984 199.344 6.15234Z" fill="#FEFEFE"/>
<path d="M242.27 26.6836L238.367 26.4023C234.641 26.4023 232.25 27.5742 231.195 29.918V54H219.348V15.9609H230.457L230.844 20.8477C232.836 17.1211 235.613 15.2578 239.176 15.2578C240.441 15.2578 241.543 15.3984 242.48 15.6797L242.27 26.6836Z" fill="#FEFEFE"/>
<path d="M46.5991 27.2827H43.845C43.845 18.2948 36.535 10.9865 27.5521 10.9865L27.5505 8.23572C38.0559 8.23076 46.5991 16.7773 46.5991 27.2827ZM27.5505 12.9867L27.5488 15.7375C33.9182 15.7375 39.0924 20.9166 39.0891 27.281L41.8431 27.2794C41.8431 19.3991 35.4357 12.9867 27.5505 12.9867ZM27 0C12.1106 0 0 12.1106 0 27.0017C0 41.8894 12.1106 54 27 54C27.9208 54 28.6647 53.2561 28.6647 52.337C28.6647 51.4129 27.9208 50.6674 27 50.6674C13.9472 50.6674 3.33099 40.0479 3.33099 27.0017C3.33099 13.9488 13.9472 3.33099 27 3.33099C40.0528 3.33099 50.6674 13.9505 50.6674 27.0017C50.6674 32.4552 47.7645 37.8592 43.6103 40.1504C42.101 40.9802 40.4645 41.3918 38.7188 41.4084C39.7669 40.7852 40.6744 39.9421 41.3489 38.8808C41.4811 38.6808 41.6563 38.5039 41.7423 38.2873C42.2845 36.983 42.3325 35.5035 42.6598 34.1248C43.0615 32.3659 34.9597 28.9292 34.2554 31.1261C34.0009 31.9394 33.6107 34.5117 33.0999 35.1894C32.6453 35.7945 31.5245 35.5068 30.8236 34.9117C28.9771 33.338 26.9157 31.0253 25.1072 29.197L25.1105 29.1953C25.0642 29.1474 25.008 29.0945 24.9584 29.0432C24.9072 28.9953 24.8559 28.9407 24.8047 28.8911V28.8944C22.9764 27.0827 20.662 25.0262 19.0899 23.1764C18.4948 22.4755 18.2072 21.3547 18.8122 20.9001C19.49 20.386 22.0622 20.0024 22.8755 19.7446C25.0675 19.0437 21.6357 10.9369 19.8735 11.3402C18.4981 11.6626 17.0186 11.7155 15.7143 12.2544C15.4928 12.3486 15.3209 12.5189 15.1209 12.6511C10.4938 15.5837 9.89708 22.7053 14.4133 28.0117C16.1342 30.0417 17.9295 32.0056 19.7776 33.9232L19.7677 33.9298C19.819 33.981 19.8719 34.029 19.9248 34.0786C19.9743 34.1298 20.0223 34.181 20.0702 34.2356L20.0801 34.2257C21.9977 36.0738 24.2707 38.7965 27.9638 41.2596C35.7383 46.452 41.7043 45.0022 45.2188 43.0747C51.2856 39.7338 54 32.5974 54 27.0083C54 12.1106 41.8878 0 27 0Z" fill="#FEFEFE"/>
</svg>
