<svg width="302" height="118" viewBox="0 0 302 118" fill="none" xmlns="http://www.w3.org/2000/svg">
<path d="M31.9335 24.06H61.6935L59.7735 33H40.6335L39.0135 40.86H52.9935L51.1935 49.2H37.2135L33.6735 66H23.0535L31.9335 24.06ZM63.7509 66.9C59.9509 66.9 56.9109 65.86 54.6309 63.78C52.3909 61.7 51.2709 58.88 51.2709 55.32C51.2709 54.36 51.4109 53.14 51.6909 51.66C52.3309 48.66 53.5309 46 55.2909 43.68C57.0909 41.32 59.2709 39.5 61.8309 38.22C64.4309 36.94 67.2509 36.3 70.2909 36.3C72.2909 36.3 74.0709 36.58 75.6309 37.14C77.1909 37.7 78.4509 38.5 79.4109 39.54L79.9509 37.2H90.5109L84.3909 66H74.1909L74.7909 63.12C71.5509 65.64 67.8709 66.9 63.7509 66.9ZM68.2509 58.74C69.8509 58.74 71.3709 58.34 72.8109 57.54C74.2909 56.7 75.4509 55.58 76.2909 54.18L77.3709 49.08C77.1309 47.68 76.4509 46.58 75.3309 45.78C74.2509 44.94 72.9109 44.52 71.3109 44.52C69.1509 44.52 67.2709 45.16 65.6709 46.44C64.0709 47.72 63.0309 49.46 62.5509 51.66C62.3909 52.34 62.3109 53.08 62.3109 53.88C62.3109 57.12 64.2909 58.74 68.2509 58.74ZM98.9188 21.66H109.479L100.059 66H89.4988L98.9188 21.66ZM122.116 66.9C117.476 66.9 113.776 65.88 111.016 63.84C108.256 61.76 106.876 58.86 106.876 55.14C106.876 54.06 106.996 52.92 107.236 51.72C108.276 46.88 110.456 43.1 113.776 40.38C117.136 37.66 121.616 36.3 127.216 36.3C129.976 36.3 132.376 36.82 134.416 37.86C136.456 38.9 138.016 40.32 139.096 42.12C140.176 43.92 140.716 45.94 140.716 48.18C140.716 49.14 140.596 50.16 140.356 51.24L139.516 55.14H116.536C116.656 58.18 119.516 59.7 125.116 59.7C126.996 59.7 128.956 59.54 130.996 59.22C133.036 58.9 134.836 58.46 136.396 57.9L134.956 64.86C133.356 65.46 131.396 65.94 129.076 66.3C126.756 66.7 124.436 66.9 122.116 66.9ZM130.936 48.54C130.976 48.3 130.996 47.98 130.996 47.58C130.996 46.26 130.576 45.26 129.736 44.58C128.896 43.9 127.476 43.56 125.476 43.56C123.556 43.56 121.936 44.02 120.616 44.94C119.296 45.82 118.396 47.02 117.916 48.54H130.936ZM150.293 24.06H160.193L166.793 50.04L184.493 24.06H194.933L186.053 66H176.153L180.593 44.94L166.133 66H161.333L155.813 44.94L151.373 66H141.413L150.293 24.06ZM205.372 66.9C201.572 66.9 198.532 65.86 196.252 63.78C194.012 61.7 192.892 58.88 192.892 55.32C192.892 54.36 193.032 53.14 193.312 51.66C193.952 48.66 195.152 46 196.912 43.68C198.712 41.32 200.892 39.5 203.452 38.22C206.052 36.94 208.872 36.3 211.912 36.3C213.912 36.3 215.692 36.58 217.252 37.14C218.812 37.7 220.072 38.5 221.032 39.54L221.572 37.2H232.132L226.012 66H215.812L216.412 63.12C213.172 65.64 209.492 66.9 205.372 66.9ZM209.872 58.74C211.472 58.74 212.992 58.34 214.432 57.54C215.912 56.7 217.072 55.58 217.912 54.18L218.992 49.08C218.752 47.68 218.072 46.58 216.952 45.78C215.872 44.94 214.532 44.52 212.932 44.52C210.772 44.52 208.892 45.16 207.292 46.44C205.692 47.72 204.652 49.46 204.172 51.66C204.012 52.34 203.932 53.08 203.932 53.88C203.932 57.12 205.912 58.74 209.872 58.74ZM243.66 33.36C242.3 33.36 241.2 32.98 240.36 32.22C239.52 31.42 239.1 30.38 239.1 29.1C239.1 27.9 239.42 26.78 240.06 25.74C240.7 24.7 241.54 23.88 242.58 23.28C243.66 22.64 244.8 22.32 246 22.32C247.36 22.32 248.46 22.74 249.3 23.58C250.18 24.38 250.62 25.42 250.62 26.7C250.62 26.9 250.58 27.28 250.5 27.84C250.14 29.4 249.3 30.72 247.98 31.8C246.66 32.84 245.22 33.36 243.66 33.36ZM237.6 37.2H248.16L242.04 66H231.48L237.6 37.2ZM259.999 66.9C257.679 66.9 255.299 66.66 252.859 66.18C250.459 65.74 248.619 65.1 247.339 64.26L248.959 56.52C250.399 57.48 252.199 58.28 254.359 58.92C256.519 59.52 258.559 59.82 260.479 59.82C261.879 59.82 262.919 59.72 263.599 59.52C264.279 59.32 264.699 58.92 264.859 58.32C264.939 57.84 264.799 57.46 264.439 57.18C264.079 56.86 263.379 56.54 262.339 56.22C261.339 55.86 260.159 55.48 258.799 55.08C255.919 54.16 253.839 53.18 252.559 52.14C251.319 51.1 250.699 49.68 250.699 47.88C250.699 47.12 250.779 46.36 250.939 45.6C252.259 39.4 257.519 36.3 266.719 36.3C268.799 36.3 270.939 36.52 273.139 36.96C275.339 37.4 276.939 37.98 277.939 38.7L276.319 46.32C275.279 45.52 273.819 44.86 271.939 44.34C270.099 43.82 268.319 43.56 266.599 43.56C265.239 43.56 264.159 43.7 263.359 43.98C262.559 44.22 262.079 44.66 261.919 45.3C261.799 45.9 262.079 46.36 262.759 46.68C263.479 47 264.759 47.4 266.599 47.88C266.799 47.92 267.019 47.98 267.259 48.06C267.539 48.14 267.819 48.22 268.099 48.3C271.059 49.14 273.139 50.1 274.339 51.18C275.539 52.26 276.139 53.66 276.139 55.38C276.139 55.98 276.039 56.82 275.839 57.9C275.239 60.7 273.639 62.9 271.039 64.5C268.479 66.1 264.799 66.9 259.999 66.9Z" fill="black"/>
<path d="M127.112 112.9C124.472 112.9 122.092 112.32 119.972 111.16C117.852 110 116.172 108.34 114.932 106.18C113.732 104.02 113.132 101.48 113.132 98.56C113.132 97 113.312 95.38 113.672 93.7C114.792 88.5 116.592 84.08 119.072 80.44C121.552 76.76 124.592 73.96 128.192 72.04C131.792 70.12 135.792 69.16 140.192 69.16C143.112 69.16 145.572 69.52 147.572 70.24L145.712 79.24C144.112 78.28 141.952 77.8 139.232 77.8C136.232 77.8 133.612 78.62 131.372 80.26C129.172 81.86 127.512 84.24 126.392 87.4C127.592 86.36 129.132 85.54 131.012 84.94C132.932 84.34 134.872 84.04 136.832 84.04C140.072 84.04 142.712 84.96 144.752 86.8C146.832 88.64 147.872 91.18 147.872 94.42C147.872 95.62 147.732 96.8 147.452 97.96C146.852 100.8 145.652 103.36 143.852 105.64C142.092 107.88 139.772 109.66 136.892 110.98C134.052 112.26 130.792 112.9 127.112 112.9ZM129.032 104.68C130.792 104.68 132.392 104.08 133.832 102.88C135.312 101.68 136.232 100.22 136.592 98.5C136.752 97.62 136.832 97.02 136.832 96.7C136.832 95.34 136.412 94.26 135.572 93.46C134.732 92.66 133.432 92.26 131.672 92.26C130.392 92.26 129.172 92.62 128.012 93.34C126.852 94.02 125.892 94.94 125.132 96.1C124.412 97.26 124.052 98.5 124.052 99.82C124.052 101.22 124.512 102.38 125.432 103.3C126.352 104.22 127.552 104.68 129.032 104.68ZM166.588 112.9C163.548 112.9 160.868 112.28 158.548 111.04C156.268 109.8 154.488 108 153.208 105.64C151.928 103.24 151.288 100.4 151.288 97.12C151.288 95.04 151.508 93.02 151.948 91.06C152.908 86.54 154.508 82.64 156.748 79.36C159.028 76.08 161.788 73.56 165.028 71.8C168.308 70.04 171.928 69.16 175.888 69.16C180.568 69.16 184.288 70.56 187.048 73.36C189.848 76.16 191.248 80.02 191.248 84.94C191.248 86.98 191.028 89.02 190.588 91.06C189.628 95.58 187.988 99.48 185.668 102.76C183.388 106.04 180.608 108.56 177.328 110.32C174.048 112.04 170.468 112.9 166.588 112.9ZM168.748 102.94C171.428 102.94 173.708 101.9 175.588 99.82C177.508 97.74 178.868 94.86 179.668 91.18C180.068 89.42 180.268 87.72 180.268 86.08C180.268 83.84 179.748 82.14 178.708 80.98C177.708 79.78 176.068 79.18 173.788 79.18C171.068 79.18 168.748 80.26 166.828 82.42C164.908 84.54 163.548 87.46 162.748 91.18C162.348 93.18 162.148 94.82 162.148 96.1C162.148 100.66 164.348 102.94 168.748 102.94Z" fill="black"/>
</svg>
